<?xml version="1.0" encoding="UTF-8"?>
<!DOCTYPE svg PUBLIC "-//W3C//DTD SVG 1.1//EN" "http://www.w3.org/Graphics/SVG/1.1/DTD/svg11.dtd">
<svg xmlns="http://www.w3.org/2000/svg" version="1.1" width="2000px" height="2000px" style="shape-rendering:geometricPrecision; text-rendering:geometricPrecision; image-rendering:optimizeQuality; fill-rule:evenodd; clip-rule:evenodd" xmlns:xlink="http://www.w3.org/1999/xlink">
<g><path style="opacity:0.997" fill="#fefffe" d="M 970.5,366.5 C 1096.55,363.618 1198.05,411.618 1275,510.5C 1339.4,602.179 1359.07,702.846 1334,812.5C 1307.18,911.391 1249.68,986.557 1161.5,1038C 1067.51,1087.7 970.172,1095.36 869.5,1061C 771.361,1022.53 701.861,954.694 661,857.5C 625.279,762.209 627.612,667.875 668,574.5C 714.491,476.997 789.324,412.164 892.5,380C 918.218,372.992 944.218,368.492 970.5,366.5 Z"/></g>
<g><path style="opacity:0.997" fill="#fefffe" d="M 714.5,1118.5 C 717.518,1118.34 720.518,1118.5 723.5,1119C 812.333,1193.17 901.167,1267.33 990,1341.5C 1093.92,1268.79 1197.75,1195.96 1301.5,1123C 1377.58,1135.55 1445.25,1166.22 1504.5,1215C 1532.22,1238.04 1554.72,1265.2 1572,1296.5C 1589.35,1330.95 1595.02,1367.28 1589,1405.5C 1576.45,1490.65 1533.62,1555.48 1460.5,1600C 1433.37,1615.27 1404.37,1624.93 1373.5,1629C 1121.18,1630.66 868.849,1630.99 616.5,1630C 541.618,1620.99 482.118,1586.16 438,1525.5C 400.79,1472 385.123,1412.67 391,1347.5C 394.874,1323.76 403.207,1301.76 416,1281.5C 443.438,1241.39 477.938,1208.89 519.5,1184C 579.419,1146.86 644.419,1125.03 714.5,1118.5 Z"/></g>
</svg>
