<?xml version="1.0" encoding="UTF-8"?>
<!DOCTYPE svg PUBLIC "-//W3C//DTD SVG 1.1//EN" "http://www.w3.org/Graphics/SVG/1.1/DTD/svg11.dtd">
<svg xmlns="http://www.w3.org/2000/svg" version="1.1" width="4322px" height="4320px" style="shape-rendering:geometricPrecision; text-rendering:geometricPrecision; image-rendering:optimizeQuality; fill-rule:evenodd; clip-rule:evenodd" xmlns:xlink="http://www.w3.org/1999/xlink">
<g><path style="opacity:0.998" fill="#fefffe" d="M 2056.5,-0.5 C 2150.5,-0.5 2244.5,-0.5 2338.5,-0.5C 2470.67,0.433045 2603,1.59971 2735.5,3C 2909.54,4.91865 3083.21,13.9187 3256.5,30C 3412.94,47.1041 3560.94,91.7707 3700.5,164C 3998.4,327.04 4187.9,574.206 4269,905.5C 4294.28,1012.09 4309.94,1120.09 4316,1229.5C 4317.78,1266 4319.61,1302.33 4321.5,1338.5C 4321.5,1886.5 4321.5,2434.5 4321.5,2982.5C 4317.74,3045.4 4313.24,3108.4 4308,3171.5C 4297.88,3323.3 4263.55,3469.3 4205,3609.5C 4113.93,3816.57 3973.76,3982.07 3784.5,4106C 3659.98,4183.64 3525.65,4237.64 3381.5,4268C 3259.1,4292.93 3135.43,4306.6 3010.5,4309C 2940.18,4310.6 2869.84,4311.6 2799.5,4312C 2417.17,4314.98 2034.84,4315.98 1652.5,4315C 1563.49,4314.07 1474.49,4312.4 1385.5,4310C 1262.68,4307.32 1140.68,4295.99 1019.5,4276C 878.587,4252.59 745.253,4207.25 619.5,4140C 370.843,3999 199.677,3793.16 106,3522.5C 63.5266,3393.13 37.8599,3260.46 29,3124.5C 21.2882,3001.61 16.2882,2878.61 14,2755.5C 12.613,2689.51 11.613,2623.51 11,2557.5C 10.0966,2227.16 11.0966,1896.83 14,1566.5C 16.6223,1451.79 20.6223,1337.12 26,1222.5C 31.6149,1096.48 51.6149,972.811 86,851.5C 138.703,674.337 226.703,518.004 350,382.5C 474.139,252.962 621.305,158.462 791.5,99C 906.483,58.0029 1024.82,32.3363 1146.5,22C 1341.03,11.476 1535.7,4.80929 1730.5,2C 1839.33,1.23167 1948,0.398337 2056.5,-0.5 Z M 1774.5,390.5 C 2058.17,390.341 2341.83,390.841 2625.5,392C 2750.55,393.487 2875.55,396.82 3000.5,402C 3095.66,404.415 3189.99,414.415 3283.5,432C 3381.56,451.047 3473.56,485.714 3559.5,536C 3680.98,611.484 3772.15,713.984 3833,843.5C 3866.74,920.102 3890.4,999.768 3904,1082.5C 3916.53,1155.32 3924.2,1228.65 3927,1302.5C 3928.54,1338.48 3929.54,1374.48 3930,1410.5C 3934.85,1832.49 3937.19,2254.49 3937,2676.5C 3934.56,2802.55 3930.56,2928.55 3925,3054.5C 3920.36,3150.99 3906.03,3245.99 3882,3339.5C 3831.81,3526.25 3726.31,3672.41 3565.5,3778C 3486.43,3826.15 3401.43,3859.81 3310.5,3879C 3213.68,3900.5 3115.68,3912.5 3016.5,3915C 2913.19,3918.23 2809.86,3920.23 2706.5,3921C 2498.83,3922.28 2291.16,3923.95 2083.5,3926C 1822.37,3929.34 1561.37,3925.01 1300.5,3913C 1238.26,3910.94 1176.26,3905.94 1114.5,3898C 995.079,3881.97 883.746,3843.31 780.5,3782C 626.441,3685.88 522.607,3550.71 469,3376.5C 436.725,3267.52 418.725,3156.18 415,3042.5C 411.233,2938.86 408.233,2835.19 406,2731.5C 403.84,2400.5 403.174,2069.5 404,1738.5C 404.543,1557.14 410.709,1375.97 422.5,1195C 428.488,1100.73 446.655,1008.89 477,919.5C 566.17,676.999 735.004,520.166 983.5,449C 1081.9,423.467 1181.9,408.467 1283.5,404C 1447.25,396.516 1610.91,392.016 1774.5,390.5 Z M 2136.5,1441.5 C 2334.5,1435.42 2507.17,1497.59 2654.5,1628C 2798.61,1762.41 2876.44,1928.58 2888,2126.5C 2893.45,2329.23 2827.78,2504.56 2691,2652.5C 2555.76,2790.87 2390.93,2865.03 2196.5,2875C 2002.71,2879.31 1833.71,2817.64 1689.5,2690C 1563.07,2572.67 1486.91,2428.17 1461,2256.5C 1436.25,2052.84 1486.58,1870.5 1612,1709.5C 1748.04,1545.73 1922.87,1456.39 2136.5,1441.5 Z"/></g>
<g><path style="opacity:0.996" fill="#fefffe" d="M 3310.5,746.5 C 3403.04,744.695 3477.54,780.028 3534,852.5C 3586.06,930.03 3596.72,1013.03 3566,1101.5C 3534.75,1178.75 3479.58,1230.59 3400.5,1257C 3309.03,1281.97 3226.7,1264.64 3153.5,1205C 3083.62,1142.03 3053.79,1063.53 3064,969.5C 3079.23,879.969 3127.07,814.469 3207.5,773C 3240.3,757.717 3274.64,748.884 3310.5,746.5 Z"/></g>
<g><path style="opacity:0.997" fill="#fefffe" d="M 2119.5,1050.5 C 2425.22,1040.16 2691.55,1135.99 2918.5,1338C 3126.18,1530.86 3245.68,1769.03 3277,2052.5C 3300.82,2338.32 3227.82,2595.99 3058,2825.5C 2894.99,3037.18 2683.16,3175.34 2422.5,3240C 2165.08,3297.4 1917.75,3268.74 1680.5,3154C 1468.46,3046.29 1305.29,2888.13 1191,2679.5C 1079.09,2466.29 1039.43,2240.29 1072,2001.5C 1113.6,1736.07 1232.77,1513.24 1429.5,1333C 1625.82,1158.74 1855.82,1064.57 2119.5,1050.5 Z M 2136.5,1441.5 C 1922.87,1456.39 1748.04,1545.73 1612,1709.5C 1486.58,1870.5 1436.25,2052.84 1461,2256.5C 1486.91,2428.17 1563.07,2572.67 1689.5,2690C 1833.71,2817.64 2002.71,2879.31 2196.5,2875C 2390.93,2865.03 2555.76,2790.87 2691,2652.5C 2827.78,2504.56 2893.45,2329.23 2888,2126.5C 2876.44,1928.58 2798.61,1762.41 2654.5,1628C 2507.17,1497.59 2334.5,1435.42 2136.5,1441.5 Z"/></g>
</svg>
