<?xml version="1.0" encoding="UTF-8"?>
<!DOCTYPE svg PUBLIC "-//W3C//DTD SVG 1.1//EN" "http://www.w3.org/Graphics/SVG/1.1/DTD/svg11.dtd">
<svg xmlns="http://www.w3.org/2000/svg" version="1.1" width="172px" height="174px" style="shape-rendering:geometricPrecision; text-rendering:geometricPrecision; image-rendering:optimizeQuality; fill-rule:evenodd; clip-rule:evenodd" xmlns:xlink="http://www.w3.org/1999/xlink">
<g><path style="opacity:0.941" fill="#f9fefd" d="M 69.5,10.5 C 73.1667,10.5 76.8333,10.5 80.5,10.5C 80.8282,15.8746 80.4948,21.2079 79.5,26.5C 67.395,26.9408 56.395,30.6074 46.5,37.5C 24.3284,55.8281 17.8284,78.8281 27,106.5C 32.7345,117.897 40.9012,127.064 51.5,134C 60.4245,139.22 70.0912,141.72 80.5,141.5C 80.5,147.167 80.5,152.833 80.5,158.5C 67.7514,158.546 55.7514,155.713 44.5,150C 16.3373,132.551 3.67061,107.051 6.5,73.5C 10.1012,51.0861 21.1012,33.5861 39.5,21C 48.906,15.6531 58.906,12.1531 69.5,10.5 Z"/></g>
<g><path style="opacity:0.978" fill="#f9fefd" d="M 91.5,10.5 C 131.47,11.9812 156.137,32.1479 165.5,71C 169.317,110.504 153.317,138.337 117.5,154.5C 108.974,156.73 100.307,158.063 91.5,158.5C 91.5,141.833 91.5,125.167 91.5,108.5C 98.6761,108.614 104.676,106.114 109.5,101C 118.218,90.6416 118.718,79.8083 111,68.5C 105.945,62.8182 99.6113,59.8182 92,59.5C 91.5001,43.1701 91.3334,26.8367 91.5,10.5 Z"/></g>
</svg>
