<?xml version="1.0" encoding="UTF-8"?>
<!DOCTYPE svg PUBLIC "-//W3C//DTD SVG 1.1//EN" "http://www.w3.org/Graphics/SVG/1.1/DTD/svg11.dtd">
<svg xmlns="http://www.w3.org/2000/svg" version="1.1" width="1024px" height="721px" style="shape-rendering:geometricPrecision; text-rendering:geometricPrecision; image-rendering:optimizeQuality; fill-rule:evenodd; clip-rule:evenodd" xmlns:xlink="http://www.w3.org/1999/xlink">
<g><path style="opacity:0.997" fill="#fefefe" d="M 1023.5,298.5 C 1023.5,339.167 1023.5,379.833 1023.5,420.5C 1021.86,468.477 1018.36,516.477 1013,564.5C 1008.89,592.508 1000.55,619.174 988,644.5C 968.043,677.085 939.21,697.252 901.5,705C 891.234,706.844 880.901,708.178 870.5,709C 646.895,721.89 423.228,722.89 199.5,712C 170.209,710.577 141.209,706.911 112.5,701C 72.1852,690.345 44.0185,665.845 28,627.5C 19.9931,607.14 14.3264,586.14 11,564.5C 0.619124,465.738 -2.38088,366.738 2,267.5C 3.72591,230.063 6.72591,192.73 11,155.5C 15.2513,126.747 23.9179,99.4138 37,73.5C 58.1093,40.8413 87.9426,21.008 126.5,14C 143.746,11.4517 161.079,9.78504 178.5,9C 400.833,-2.33333 623.167,-2.33333 845.5,9C 860.882,9.78182 876.215,11.1152 891.5,13C 952.397,23.2264 990.23,58.3931 1005,118.5C 1008.31,130.698 1010.97,143.031 1013,155.5C 1018.31,203.192 1021.81,250.858 1023.5,298.5 Z M 410.5,208.5 C 410.973,209.906 411.973,210.573 413.5,210.5C 491.148,262.993 569.148,314.993 647.5,366.5C 568.052,408.059 488.385,449.392 408.5,490.5C 407.333,396.168 407.167,301.835 408,207.5C 408.671,208.252 409.504,208.586 410.5,208.5 Z"/></g>
<g><path style="opacity:0.037" fill="#1a1a1a" d="M 410.5,208.5 C 412.027,208.427 413.027,209.094 413.5,210.5C 411.973,210.573 410.973,209.906 410.5,208.5 Z"/></g>
<g><path style="opacity:0.118" fill="#010101" d="M 413.5,210.5 C 502.427,255.964 591.094,301.964 679.5,348.5C 680.833,349.167 680.833,349.833 679.5,350.5C 668.78,355.86 658.114,361.193 647.5,366.5C 569.148,314.993 491.148,262.993 413.5,210.5 Z"/></g>
</svg>
