<?xml version="1.0" encoding="UTF-8"?>
<!DOCTYPE svg PUBLIC "-//W3C//DTD SVG 1.1//EN" "http://www.w3.org/Graphics/SVG/1.1/DTD/svg11.dtd">
<svg xmlns="http://www.w3.org/2000/svg" version="1.1" width="2143px" height="2143px" style="shape-rendering:geometricPrecision; text-rendering:geometricPrecision; image-rendering:optimizeQuality; fill-rule:evenodd; clip-rule:evenodd" xmlns:xlink="http://www.w3.org/1999/xlink">
<g><path style="opacity:0.998" fill="#fefffe" d="M 1024.5,4.5 C 1301.78,-3.80328 1546.78,79.6967 1759.5,255C 1960.01,427.43 2082.18,644.93 2126,907.5C 2160.71,1145.9 2121.38,1371.23 2008,1583.5C 1885.02,1802.48 1707.85,1960.98 1476.5,2059C 1399.41,2090.36 1319.75,2112.52 1237.5,2125.5C 1237.5,1876.83 1237.5,1628.17 1237.5,1379.5C 1320.4,1379.83 1403.24,1379.5 1486,1378.5C 1501.83,1276.2 1517.33,1173.87 1532.5,1071.5C 1434.17,1071.5 1335.83,1071.5 1237.5,1071.5C 1237.03,995.147 1237.53,918.813 1239,842.5C 1242.57,803.858 1258.07,771.024 1285.5,744C 1314.81,720.194 1348.48,707.194 1386.5,705C 1439.5,704.5 1492.5,704.333 1545.5,704.5C 1545.5,617.167 1545.5,529.833 1545.5,442.5C 1460.41,428.437 1374.74,421.604 1288.5,422C 1216.45,423.261 1148.79,440.927 1085.5,475C 1012.48,518.377 961.645,580.21 933,660.5C 917.455,705.893 908.455,752.56 906,800.5C 904.602,890.826 904.102,981.159 904.5,1071.5C 814.5,1071.5 724.5,1071.5 634.5,1071.5C 634.5,1174.17 634.5,1276.83 634.5,1379.5C 724.5,1379.5 814.5,1379.5 904.5,1379.5C 904.5,1628.17 904.5,1876.83 904.5,2125.5C 666.749,2085.56 464.582,1979.56 298,1807.5C 105.672,1600.52 7.50554,1354.85 3.5,1070.5C 7.51439,792.138 102.348,550.471 288,345.5C 460.71,162.044 672.544,51.544 923.5,14C 957.205,9.58788 990.872,6.42121 1024.5,4.5 Z"/></g>
</svg>
